<?xml version="1.0" encoding="UTF-8" standalone="no"?>
<!DOCTYPE svg PUBLIC "-//W3C//DTD SVG 1.1//EN" "http://www.w3.org/Graphics/SVG/1.1/DTD/svg11.dtd">
<svg width="100%" height="100%" viewBox="0 0 400 400" version="1.1" xmlns="http://www.w3.org/2000/svg" xmlns:xlink="http://www.w3.org/1999/xlink" xml:space="preserve" style="fill-rule:evenodd;clip-rule:evenodd;stroke-linejoin:round;stroke-miterlimit:1.41421;">
    <g id="Layer1">
        <path d="M363.871,134.581L366.907,155.277L381.047,190.89C381.352,196.96 381.352,203.04 381.047,209.11L366.907,244.723L361.346,282.634C358.576,288.043 355.535,293.309 352.236,298.413L322.184,322.184L298.413,352.236C293.309,355.535 288.043,358.576 282.634,361.346L244.723,366.907L209.11,381.047C203.04,381.352 196.96,381.352 190.89,381.047L155.277,366.907L117.366,361.346C111.957,358.576 106.691,355.535 101.587,352.236L77.816,322.184L47.764,298.413C44.465,293.309 41.424,288.043 38.654,282.634L33.093,244.723L18.953,209.11C18.648,203.04 18.648,196.96 18.953,190.89L33.093,155.277L38.654,117.366C41.424,111.957 44.465,106.691 47.764,101.587L74.304,80.594L91.856,100.383C67.682,126.58 52.919,161.579 52.919,200C52.919,281.176 118.824,347.081 200,347.081C281.176,347.081 347.081,281.176 347.081,200C347.081,181.541 343.674,163.872 337.453,147.587L363.871,134.581ZM74.831,80.176L77.816,77.816L101.587,47.764C106.691,44.465 111.957,41.424 117.366,38.654L155.277,33.093L190.89,18.953C196.96,18.648 203.04,18.648 209.11,18.953L244.723,33.093L282.634,38.654C288.043,41.424 293.309,44.465 298.413,47.764L322.184,77.816L352.236,101.587C355.535,106.691 358.576,111.957 361.346,117.366L363.854,134.466L337.414,147.484C316.252,92.209 262.678,52.919 200,52.919C157.489,52.919 119.167,70.992 92.321,99.895L74.831,80.176Z" style="fill:rgb(101,214,149);"/>
    </g>
</svg>
